<svg xmlns="http://www.w3.org/2000/svg" viewBox="0 0 923 923"><defs><style>.cls-1{fill:#333;stroke-width:2px;}.cls-1,.cls-2,.cls-3,.cls-4,.cls-5{stroke:#fff;stroke-miterlimit:10;}.cls-2{fill:#ff0;}.cls-3{fill:#d3ff00;}.cls-4{fill:lime;}.cls-5{fill:#666;}</style></defs><g id="Camada_1" data-name="Camada 1"><rect class="cls-1" x="1" y="1" width="921" height="921" rx="30"/></g><g id="Camada_2" data-name="Camada 2"><rect class="cls-2" x="39.5" y="39.5" width="157.8" height="157.8" rx="30"/><rect class="cls-2" x="211.05" y="39.5" width="157.8" height="157.8" rx="30"/><rect class="cls-3" x="382.6" y="39.5" width="157.8" height="157.8" rx="30"/><rect class="cls-4" x="554.15" y="39.5" width="157.8" height="157.8" rx="30"/><rect class="cls-4" x="725.7" y="39.5" width="157.8" height="157.8" rx="30"/><rect class="cls-5" x="39.5" y="211.05" width="157.8" height="157.8" rx="30"/><rect class="cls-5" x="211.05" y="211.05" width="157.8" height="157.8" rx="30"/><rect class="cls-3" x="382.6" y="211.05" width="157.8" height="157.8" rx="30"/><rect class="cls-5" x="554.15" y="211.05" width="157.8" height="157.8" rx="30"/><rect class="cls-5" x="725.7" y="211.05" width="157.8" height="157.8" rx="30"/><rect class="cls-2" x="39.5" y="382.6" width="157.8" height="157.8" rx="30"/><rect class="cls-2" x="211.05" y="382.6" width="157.8" height="157.8" rx="30"/><rect class="cls-3" x="382.6" y="382.6" width="157.8" height="157.8" rx="30"/><rect class="cls-4" x="554.15" y="382.6" width="157.8" height="157.8" rx="30"/><rect class="cls-4" x="725.7" y="382.6" width="157.8" height="157.8" rx="30"/><rect class="cls-2" x="39.5" y="554.15" width="157.8" height="157.8" rx="30"/><rect class="cls-5" x="211.05" y="554.15" width="157.8" height="157.8" rx="30"/><rect class="cls-5" x="382.6" y="554.15" width="157.8" height="157.8" rx="30"/><rect class="cls-5" x="554.15" y="554.15" width="157.8" height="157.8" rx="30"/><rect class="cls-4" x="725.7" y="554.15" width="157.8" height="157.8" rx="30"/><rect class="cls-2" x="39.5" y="725.7" width="157.8" height="157.8" rx="30"/><rect class="cls-2" x="211.05" y="725.7" width="157.8" height="157.8" rx="30"/><rect class="cls-3" x="382.6" y="725.7" width="157.8" height="157.8" rx="30"/><rect class="cls-4" x="554.15" y="725.7" width="157.8" height="157.8" rx="30"/><rect class="cls-4" x="725.7" y="725.7" width="157.8" height="157.8" rx="30"/></g></svg>